<svg xmlns="http://www.w3.org/2000/svg" viewBox="0 0 512 512" width="512" height="512">
  <defs>
    <linearGradient id="bg" x1="0%" y1="0%" x2="100%" y2="100%">
      <stop offset="0%" stop-color="#090d16"/>
      <stop offset="100%" stop-color="#030712"/>
    </linearGradient>
    <linearGradient id="shieldGrad" x1="0%" y1="0%" x2="100%" y2="100%">
      <stop offset="0%" stop-color="#06b6d4"/>
      <stop offset="100%" stop-color="#3b82f6"/>
    </linearGradient>
  </defs>
  <rect width="512" height="512" rx="128" fill="url(#bg)"/>
  <rect width="496" height="496" x="8" y="8" rx="120" fill="none" stroke="#1e293b" stroke-width="4"/>
  <path d="M256 80 L384 144 V264 C384 344 329.6 416 256 432 C182.4 416 128 344 128 264 V144 Z" fill="none" stroke="url(#shieldGrad)" stroke-width="24" stroke-linejoin="round"/>
  <path d="M256 120 L352 168 V256 C352 316 312 370 256 384 C200 370 160 316 160 256 V168 Z" fill="#0891b2" fill-opacity="0.15"/>
  <path d="M216 256 L244 284 L296 228" fill="none" stroke="#22d3ee" stroke-width="20" stroke-linecap="round" stroke-linejoin="round"/>
  <circle cx="256" cy="256" r="14" fill="#38bdf8"/>
</svg>
